<svg width="20" height="20" viewBox="0 0 20 20" fill="none" xmlns="http://www.w3.org/2000/svg">
<path d="M10 0C4.5 0 0 4.49999 0 9.99999C0 15.5 4.5 20 10 20C15.5 20 20 15.5 20 9.99999C20 4.49999 15.5 0 10 0ZM10 18C5.6 18 2 14.4 2 9.99999C2 5.59999 5.6 2 10 2C14.4 2 18 5.59999 18 9.99999C18 14.4 14.4 18 10 18Z" fill="#0A0A0A"/>
<path d="M14.7 12.3H8V14H14.7V12.3Z" fill="#0A0A0A"/>
<path d="M14.7 5.99999H13V13.3H14.7V5.99999Z" fill="#0A0A0A"/>
<path d="M9.7 8.99998H8V13.9H9.7V8.99998Z" fill="#0A0A0A"/>
<path d="M12.0001 5.99999H5.30005V7.69999H12.0001V5.99999Z" fill="#0A0A0A"/>
<path d="M7.00005 6.69999H5.30005V14H7.00005V6.69999Z" fill="#0A0A0A"/>
<path d="M12 5.99999H10.3V10.9H12V5.99999Z" fill="#0A0A0A"/>
</svg>
